<?xml version="1.0" encoding="utf-8"?>
<!-- Generator: Adobe Illustrator 15.0.0, SVG Export Plug-In . SVG Version: 6.00 Build 0)  -->
<!DOCTYPE svg PUBLIC "-//W3C//DTD SVG 1.1//EN" "http://www.w3.org/Graphics/SVG/1.1/DTD/svg11.dtd">
<svg version="1.1" id="Layer_1" xmlns="http://www.w3.org/2000/svg" xmlns:xlink="http://www.w3.org/1999/xlink" x="0px" y="0px"
	 width="360px" height="318.072px" viewBox="20 25.126 360 318.072" enable-background="new 20 25.126 360 318.072"
	 xml:space="preserve">
<g id="Calque_2" display="none">
	<rect y="-0.001" display="inline" fill="#084287" width="400" height="400.001"/>
</g>
<g id="Black">
	<path fill="none" d="M343.963,74.796H205.654c-15.342,0-27.823,12.483-27.823,27.824v204.541c0,15.341,12.482,27.821,27.823,27.821
		h138.309c15.341,0,27.823-12.48,27.823-27.821V102.619C371.786,87.279,359.304,74.796,343.963,74.796z M343.963,84.378
		c3.316,0,6.43,0.896,9.111,2.45l-6.515,9.076l-8.271-11.525H343.963z M329.86,84.378l12.484,17.395l-20.034,27.921l-20.041-27.921
		l12.484-17.395H329.86z M306.325,84.378l-8.271,11.525l-8.271-11.525H306.325z M257.826,84.378l-8.274,11.525l-8.271-11.525
		H257.826z M232.857,84.378l12.483,17.395l-20.039,27.921l-20.039-27.921l12.487-17.395H232.857z M205.654,84.378h3.666
		l-8.271,11.525l-5.882-8.195C198.135,85.614,201.753,84.378,205.654,84.378z M187.413,102.619c0-3.646,1.078-7.042,2.929-9.895
		l6.495,9.049l-9.423,13.128V102.619z M187.413,126.641l13.636-18.999l20.038,27.92l-20.038,27.919l-13.636-18.999V126.641z
		 M187.413,156.219l9.423,13.13l-9.423,13.13V156.219z M187.413,223.794l9.423,13.13l-9.423,13.13V223.794z M187.413,261.791
		l13.636-18.996l20.039,27.922l-20.039,27.915l-13.636-18.999V261.791z M187.413,307.16v-15.785l9.423,13.128l-7.604,10.595
		C188.066,312.696,187.413,310.002,187.413,307.16z M205.654,325.401c-4.636,0-8.868-1.741-12.09-4.6l7.484-10.436l10.786,15.034
		L205.654,325.401L205.654,325.401z M220.263,325.401l-15-20.898l20.039-27.92l20.039,27.92l-15,20.898H220.263z M238.766,325.401
		l10.786-15.034l10.785,15.034H238.766z M287.273,325.401l10.783-15.034l10.788,15.034H287.273z M317.268,325.401l-14.998-20.898
		l20.038-27.92l20.037,27.92l-14.998,20.898H317.268z M343.963,325.401h-8.19l10.787-15.034l8.225,11.464
		C351.755,324.069,348.009,325.401,343.963,325.401z M362.203,307.16c0,3.486-0.984,6.747-2.69,9.519l-8.743-12.176l11.434-15.928
		V307.16z M362.203,276.838l-15.644,21.794l-20.036-27.915l20.036-27.922l15.644,21.794V276.838z M362.203,252.852l-11.434-15.93
		l11.434-15.926V252.852z M362.203,209.262l-9.035,12.591c-4.738,21.994-18.493,40.633-37.214,51.852l-17.9,24.93L287.58,284.04
		c-2.567,0.414-5.17,0.695-7.811,0.858l14.073,19.608l-14.997,20.898h-10.081l-14.999-20.898l14.178-19.753
		c-2.6-0.223-5.161-0.567-7.686-1.028l-10.703,14.91l-19.569-27.26c-15.666-10.585-27.368-26.566-32.49-45.271l-10.08-14.044
		v-17.838l12.053-16.793c5.058-13.872,13.846-25.939,25.139-35.024l0.694-0.968l0.193,0.271c1.798-1.403,3.654-2.734,5.566-3.983
		l-1.548-2.157l20.039-27.92l12.936,18.021c2.574-0.397,5.193-0.667,7.841-0.812l-16.563-23.077l12.486-17.394h15.11l12.483,17.394
		l-16.514,23.01c2.691,0.083,5.349,0.299,7.965,0.641l12.76-17.782l20.042,27.921l-0.917,1.275
		c16.552,10.327,29.051,26.52,34.611,45.67l10.411,14.507L362.203,209.262L362.203,209.262z M362.203,185.273l-11.434-15.924
		l11.434-15.926V185.273z M362.203,141.685l-15.644,21.795l-20.036-27.919l20.036-27.92l15.644,21.795V141.685z M362.203,117.699
		l-11.434-15.926l7.501-10.445c2.459,3.11,3.934,7.03,3.934,11.292L362.203,117.699L362.203,117.699z"/>
	<g>
		<g>
			<path fill="#FAB915" d="M143.834,152.457c-6.218-6.712-15.931-9.812-25.3-7.051c-13.173,3.888-20.541,18.261-16.654,31.434
				c0.452,1.54,1.252,3.689,1.919,4.918l-0.024,0.007c0,0,8.701,24.815,57.979,36.226v-85.085c-0.145,0.041-0.289,0.072-0.434,0.117
				C151.949,135.787,145.413,143.444,143.834,152.457z"/>
			<path fill="#FAB915" d="M62.043,89.308c-0.316-0.404-0.674-0.548-1.072-0.43c-0.161,0.047-0.406,0.13-0.738,0.25
				c-0.334,0.12-0.695,0.259-1.08,0.417c-0.388,0.158-0.79,0.324-1.206,0.501c-0.414,0.176-0.771,0.341-1.072,0.495
				c-0.364,0.172-0.5,0.409-0.413,0.708c0.019,0.06,0.072,0.163,0.16,0.312l1.14,1.551l-4.015,36.916
				c-0.007,0.047-0.003,0.1,0.015,0.16c0.061,0.2,0.25,0.252,0.57,0.156c0.578-0.171,1.095-0.333,1.547-0.487
				c0.455-0.156,0.854-0.308,1.201-0.452c0.269-0.125,0.408-0.305,0.424-0.55l0.947-13.784l13.019-4.07l8.627,11.253
				c0.206,0.264,0.479,0.348,0.82,0.248c0.161-0.049,0.418-0.13,0.773-0.246c0.359-0.118,0.748-0.251,1.167-0.41
				c0.42-0.155,0.849-0.325,1.283-0.508c0.435-0.182,0.821-0.355,1.165-0.523c0.38-0.177,0.521-0.435,0.422-0.775
				c-0.018-0.058-0.08-0.16-0.188-0.302L62.043,89.308z M58.86,112.942l1.16-16.482l10.068,13.169L58.86,112.942z"/>
			<path fill="#FAB915" d="M178.505,26.609L45.85,65.747c-19.09,5.63-29.999,25.671-24.367,44.76L79.36,306.688
				c5.63,19.09,25.674,30,44.763,24.367l39.145-11.545c-0.718-2.63-1.188-5.357-1.387-8.155l-40.083,11.824
				c-14.715,4.343-30.219-4.099-34.561-18.814L29.359,108.182c-4.341-14.715,4.098-30.217,18.815-34.559l132.653-39.136
				c14.717-4.34,30.22,4.098,34.56,18.814l2.218,7.514h8.564l-2.903-9.838C217.634,31.887,197.595,20.976,178.505,26.609z"/>
		</g>
		<g>
			<path fill="#FAB915" d="M300.762,202.355v-0.285c7.475-3.798,12.119-11.291,12.119-20.688c0-10.347-5.585-18.25-13.219-21.658
				c-4.775-2.174-9.93-2.86-16.881-2.86h-3.601v-7.865c0-1.541-1.226-2.786-2.78-2.786h-8.027c-1.54,0-2.8,1.245-2.8,2.786v7.865
				h-9.026v-7.865c0-1.541-1.251-2.786-2.8-2.786h-8.018c-1.557,0-2.787,1.245-2.787,2.786v7.865h-8.244
				c-0.964,0-1.733,0.789-1.733,1.751v7.667c0,0.961,0.77,1.751,1.733,1.751h8.244v73.786h-7.769c-1.234,0-2.253,1.002-2.248,2.256
				l0.025,6.704c0.007,1.238,0.999,2.251,2.23,2.251h7.758v7.738c0,1.539,1.231,2.801,2.787,2.801h8.019
				c1.548,0,2.8-1.262,2.8-2.801v-7.738h9.027v7.738c0,1.539,1.258,2.801,2.801,2.801h8.024c1.555,0,2.781-1.262,2.781-2.801v-7.738
				h5.367c5.311,0,9.802-0.284,14.429-1.792c9.952-3.396,17.714-12.933,17.714-25.604
				C316.688,214.747,311.097,205.342,300.762,202.355 M282.781,168.035c4.09,0,7.204,0.548,9.938,1.906
				c4.083,2.318,6.258,7.078,6.258,12.669c0,8.72-5.441,14.713-14.148,14.713h-28.281v-29.288H282.781z M293.663,240.49
				c-2.578,1.087-5.846,1.354-8.58,1.354l-28.538-0.021v-33.331l29.64-0.013c10.085,0,16.617,6.536,16.617,16.488
				C302.802,232.171,299.251,238.165,293.663,240.49"/>
			<g>
				<path fill="#FAB915" d="M343.963,66.582H205.654c-19.904,0-36.039,16.135-36.039,36.037V307.16
					c0,19.902,16.135,36.038,36.039,36.038h138.309c19.903,0,36.037-16.136,36.037-36.038V102.619
					C380,82.717,363.866,66.582,343.963,66.582z M371.786,307.16c0,15.341-12.482,27.821-27.823,27.821H205.654
					c-15.342,0-27.823-12.48-27.823-27.821V102.619c0-15.34,12.482-27.823,27.823-27.823h138.309
					c15.341,0,27.823,12.483,27.823,27.823V307.16L371.786,307.16z"/>
				<g>
					<polygon fill="#FAB915" points="326.521,135.562 346.56,163.479 362.203,141.685 362.203,129.437 346.56,107.641 					"/>
					<path fill="#FAB915" d="M249.552,298.632l10.704-14.911c-11.047-2.026-21.311-6.294-30.275-12.35L249.552,298.632z"/>
					<polygon fill="#FAB915" points="287.273,325.401 308.843,325.401 298.054,310.369 					"/>
					<path fill="#FAB915" d="M298.054,298.632l17.9-24.931c-8.554,5.125-18.139,8.699-28.374,10.338L298.054,298.632z"/>
					<path fill="#FAB915" d="M354.982,204.89c0,5.821-0.636,11.491-1.814,16.96l9.035-12.588v-12.249l-10.41-14.506
						C353.854,189.613,354.982,197.118,354.982,204.89z"/>
					<polygon fill="#FAB915" points="362.203,185.273 362.203,153.423 350.77,169.349 					"/>
					<polygon fill="#FAB915" points="238.766,325.401 260.337,325.401 249.552,310.369 					"/>
					<path fill="#FAB915" d="M267.943,284.749l-14.18,19.754l14.998,20.9h10.084l14.995-20.9l-14.073-19.609
						c-1.643,0.101-3.294,0.168-4.961,0.168C272.493,285.062,270.208,284.942,267.943,284.749z"/>
					<polygon fill="#FAB915" points="306.325,84.378 289.783,84.378 298.054,95.904 					"/>
					<path fill="#FAB915" d="M359.513,316.679c1.706-2.771,2.69-6.032,2.69-9.519v-18.583l-11.434,15.926L359.513,316.679z"/>
					<path fill="#FAB915" d="M277.329,124.781l16.514-23.01l-12.484-17.394h-15.109l-12.485,17.394l16.563,23.077
						c1.483-0.082,2.975-0.132,4.479-0.132C275.653,124.718,276.489,124.756,277.329,124.781z"/>
					<path fill="#FAB915" d="M187.413,291.375v15.785c0,2.842,0.653,5.536,1.819,7.937l7.604-10.594L187.413,291.375z"/>
					<path fill="#FAB915" d="M318.096,135.562l-20.042-27.921l-12.76,17.782c11.591,1.515,22.401,5.496,31.884,11.415
						L318.096,135.562z"/>
					<path fill="#FAB915" d="M209.32,84.378h-3.666c-3.901,0-7.518,1.235-10.487,3.331l5.882,8.195L209.32,84.378z"/>
					<path fill="#FAB915" d="M350.77,101.773l11.434,15.926V102.62c0-4.264-1.474-8.182-3.933-11.292L350.77,101.773z"/>
					<polygon fill="#FAB915" points="322.311,129.692 342.345,101.773 329.86,84.378 314.751,84.378 302.27,101.773 					"/>
					<polygon fill="#FAB915" points="225.302,129.692 245.341,101.773 232.857,84.378 217.748,84.378 205.262,101.773 					"/>
					<polygon fill="#FAB915" points="362.203,252.852 362.203,220.999 350.77,236.924 					"/>
					<polygon fill="#FAB915" points="326.521,270.717 346.56,298.632 362.203,276.838 362.203,264.589 346.56,242.795 					"/>
					<polygon fill="#FAB915" points="221.087,135.562 201.049,107.641 187.413,126.641 187.413,144.481 201.049,163.479 					"/>
					<path fill="#FAB915" d="M335.772,325.401h8.19c4.048,0,7.795-1.332,10.821-3.569l-8.225-11.463L335.772,325.401z"/>
					<path fill="#FAB915" d="M190.342,92.724c-1.851,2.852-2.928,6.249-2.928,9.895v12.282l9.423-13.128L190.342,92.724z"/>
					<path fill="#FAB915" d="M193.564,320.802c3.22,2.86,7.454,4.602,12.09,4.602h6.181l-10.786-15.032L193.564,320.802z"/>
					<path fill="#FAB915" d="M353.074,86.828c-2.682-1.554-5.796-2.45-9.111-2.45h-5.675l8.271,11.525L353.074,86.828z"/>
					<path fill="#FAB915" d="M249.552,107.641l-20.039,27.921l1.548,2.158c9.317-6.082,19.966-10.29,31.428-12.057L249.552,107.641z
						"/>
					<path fill="#FAB915" d="M199.466,177.424l-12.052,16.794v17.84l10.079,14.042c-1.85-6.758-2.857-13.866-2.857-21.213
						C194.636,195.242,196.342,185.991,199.466,177.424z"/>
					<polygon fill="#FAB915" points="257.826,84.378 241.281,84.378 249.552,95.904 					"/>
					<polygon fill="#FAB915" points="187.413,156.219 187.413,182.479 196.836,169.349 					"/>
					<polygon fill="#FAB915" points="221.088,270.717 201.049,242.795 187.413,261.791 187.413,279.633 201.049,298.632 					"/>
					<polygon fill="#FAB915" points="225.302,276.583 205.262,304.503 220.263,325.401 230.341,325.401 245.341,304.503 					"/>
					<polygon fill="#FAB915" points="187.413,223.794 187.413,250.054 196.836,236.924 					"/>
					<polygon fill="#FAB915" points="322.308,276.583 302.27,304.503 317.268,325.401 327.347,325.401 342.345,304.503 					"/>
				</g>
			</g>
		</g>
	</g>
</g>
<g id="Grey" display="none">
	<g display="inline">
		<g>
			<path fill="#8B8B8B" d="M153.063,173.503c-5.197-5.609-13.313-8.2-21.143-5.892c-11.009,3.249-17.166,15.26-13.918,26.269
				c0.378,1.287,1.047,3.083,1.604,4.11l-0.02,0.006c0,0,7.271,20.738,48.452,30.273v-71.104c-0.121,0.034-0.241,0.06-0.362,0.097
				C159.844,159.572,154.382,165.971,153.063,173.503z"/>
			<path fill="#8B8B8B" d="M84.711,120.73c-0.264-0.338-0.563-0.458-0.896-0.36c-0.134,0.04-0.339,0.109-0.617,0.21
				c-0.279,0.1-0.581,0.216-0.902,0.348c-0.325,0.132-0.66,0.271-1.008,0.419c-0.346,0.147-0.645,0.285-0.896,0.414
				c-0.304,0.144-0.418,0.341-0.345,0.591c0.016,0.05,0.06,0.136,0.133,0.261l0.953,1.296l-3.355,30.851
				c-0.006,0.039-0.003,0.083,0.012,0.133c0.051,0.167,0.209,0.211,0.476,0.131c0.483-0.143,0.915-0.279,1.293-0.407
				c0.38-0.13,0.714-0.257,1.004-0.378c0.224-0.104,0.341-0.255,0.354-0.459l0.791-11.519l10.88-3.401l7.21,9.404
				c0.172,0.221,0.4,0.291,0.685,0.207c0.134-0.041,0.349-0.108,0.646-0.205c0.3-0.098,0.625-0.21,0.975-0.342
				c0.351-0.13,0.709-0.272,1.072-0.425c0.363-0.152,0.686-0.297,0.973-0.437c0.318-0.148,0.436-0.364,0.353-0.648
				c-0.015-0.049-0.067-0.134-0.157-0.252L84.711,120.73z M82.051,140.481l0.969-13.774l8.414,11.006L82.051,140.481z"/>
			<path fill="#8B8B8B" d="M182.037,68.333L71.178,101.04c-15.954,4.705-25.07,21.453-20.363,37.406l48.367,163.947
				c4.705,15.953,21.455,25.07,37.408,20.363l32.713-9.648c-0.6-2.197-0.992-4.477-1.159-6.814l-33.497,9.881
				c-12.297,3.629-25.254-3.426-28.882-15.723L57.397,136.503c-3.628-12.297,3.425-25.252,15.724-28.88l110.857-32.706
				c12.299-3.627,25.254,3.425,28.881,15.723l1.854,6.279h7.157l-2.427-8.222C214.736,72.744,197.99,63.626,182.037,68.333z"/>
		</g>
		<g>
			<path fill="#8B8B8B" d="M284.206,215.203v-0.238c6.246-3.174,10.128-9.436,10.128-17.289c0-8.647-4.668-15.252-11.048-18.1
				c-3.99-1.817-8.298-2.39-14.106-2.39h-3.009v-6.573c0-1.288-1.024-2.328-2.323-2.328h-6.709c-1.287,0-2.339,1.04-2.339,2.328
				v6.573h-7.544v-6.573c0-1.288-1.046-2.328-2.34-2.328h-6.7c-1.301,0-2.329,1.04-2.329,2.328v6.573h-6.89
				c-0.806,0-1.449,0.659-1.449,1.464v6.407c0,0.804,0.644,1.464,1.449,1.464h6.89v61.663h-6.492c-1.031,0-1.883,0.838-1.879,1.885
				l0.021,5.603c0.006,1.035,0.835,1.881,1.863,1.881h6.484v6.468c0,1.285,1.028,2.34,2.329,2.34h6.7c1.294,0,2.34-1.055,2.34-2.34
				v-6.468h7.544v6.468c0,1.285,1.052,2.34,2.341,2.34h6.706c1.3,0,2.324-1.055,2.324-2.34v-6.468h4.485
				c4.438,0,8.191-0.237,12.058-1.497c8.317-2.837,14.804-10.808,14.804-21.396C297.516,225.559,292.843,217.699,284.206,215.203
				 M269.18,186.522c3.418,0,6.021,0.458,8.305,1.592c3.412,1.938,5.229,5.916,5.229,10.588c0,7.287-4.547,12.296-11.823,12.296
				h-23.635v-24.476H269.18z M278.273,247.072c-2.154,0.908-4.885,1.131-7.17,1.131l-23.85-0.018v-27.854l24.77-0.011
				c8.429,0,13.888,5.462,13.888,13.779C285.911,240.119,282.943,245.129,278.273,247.072"/>
			<g>
				<path fill="none" d="M320.309,108.603H204.725c-12.821,0-23.25,10.432-23.25,23.252v170.933c0,12.82,10.431,23.25,23.25,23.25
					h115.584c12.82,0,23.252-10.43,23.252-23.25V131.854C343.561,119.034,333.129,108.603,320.309,108.603z M320.309,116.611
					c2.771,0,5.373,0.748,7.614,2.047l-5.444,7.584l-6.912-9.631H320.309z M308.523,116.611l10.433,14.536l-16.742,23.333
					l-16.748-23.333l10.433-14.536H308.523z M288.855,116.611l-6.912,9.631l-6.912-9.631H288.855z M248.325,116.611l-6.915,9.631
					l-6.912-9.631H248.325z M227.458,116.611l10.433,14.536l-16.746,23.333l-16.746-23.333l10.436-14.536H227.458z M204.725,116.611
					h3.064l-6.912,9.631l-4.916-6.848C198.442,117.643,201.465,116.611,204.725,116.611z M189.481,131.854
					c0-3.047,0.901-5.885,2.447-8.269l5.428,7.562l-7.875,10.971V131.854z M189.481,151.929l11.396-15.877l16.745,23.333
					l-16.745,23.332l-11.396-15.877V151.929z M189.481,176.647l7.875,10.973l-7.875,10.973V176.647z M189.481,233.119l7.875,10.973
					l-7.875,10.973V233.119z M189.481,264.873l11.396-15.875l16.746,23.334l-16.746,23.328l-11.396-15.877V264.873z
					 M189.481,302.787v-13.191l7.875,10.971l-6.355,8.854C190.027,307.414,189.481,305.162,189.481,302.787z M204.725,318.031
					c-3.873,0-7.411-1.455-10.103-3.844l6.255-8.721l9.014,12.563L204.725,318.031L204.725,318.031z M216.934,318.031
					l-12.535-17.465l16.746-23.332l16.746,23.332l-12.535,17.465H216.934z M232.396,318.031l9.014-12.563l9.014,12.563H232.396z
					 M272.934,318.031l9.012-12.563l9.016,12.563H272.934z M298,318.031l-12.534-17.465l16.746-23.332l16.744,23.332l-12.533,17.465
					H298z M320.309,318.031h-6.845l9.015-12.563l6.873,9.58C326.82,316.918,323.689,318.031,320.309,318.031z M335.552,302.787
					c0,2.914-0.823,5.639-2.249,7.955l-7.306-10.176l9.555-13.311V302.787z M335.552,277.447l-13.073,18.213l-16.744-23.328
					l16.744-23.334l13.073,18.213V277.447z M335.552,257.402l-9.555-13.312l9.555-13.309V257.402z M335.552,220.975l-7.551,10.521
					c-3.96,18.381-15.454,33.957-31.099,43.332l-14.959,20.834l-8.754-12.195c-2.145,0.346-4.32,0.58-6.526,0.717l11.761,16.387
					l-12.533,17.465h-8.425l-12.534-17.465l11.848-16.508c-2.172-0.186-4.312-0.475-6.422-0.859l-8.945,12.461l-16.354-22.781
					c-13.092-8.846-22.871-22.201-27.151-37.832l-8.423-11.736v-14.907l10.072-14.034c4.227-11.592,11.571-21.677,21.008-29.269
					l0.58-0.809l0.162,0.226c1.502-1.173,3.053-2.285,4.651-3.329l-1.294-1.803l16.747-23.333l10.81,15.06
					c2.151-0.332,4.34-0.557,6.553-0.679l-13.842-19.285l10.435-14.536h12.627l10.434,14.536l-13.801,19.229
					c2.249,0.069,4.47,0.25,6.656,0.536l10.663-14.86l16.748,23.333l-0.766,1.066c13.832,8.63,24.277,22.162,28.924,38.166
					l8.701,12.123L335.552,220.975L335.552,220.975z M335.552,200.928l-9.555-13.308l9.555-13.309V200.928z M335.552,164.501
					l-13.073,18.214l-16.744-23.332l16.744-23.333l13.073,18.214V164.501z M335.552,144.456l-9.555-13.309l6.269-8.729
					c2.055,2.599,3.287,5.875,3.287,9.437L335.552,144.456L335.552,144.456z"/>
				<path fill="#8B8B8B" d="M320.309,101.738H204.725c-16.633,0-30.117,13.484-30.117,30.116v170.933
					c0,16.633,13.484,30.117,30.117,30.117h115.584c16.633,0,30.116-13.484,30.116-30.117V131.854
					C350.425,115.222,336.941,101.738,320.309,101.738z M343.561,302.787c0,12.82-10.432,23.25-23.252,23.25H204.725
					c-12.821,0-23.25-10.43-23.25-23.25V131.854c0-12.82,10.431-23.252,23.25-23.252h115.584c12.82,0,23.252,10.432,23.252,23.252
					V302.787L343.561,302.787z"/>
				<polygon fill="#8B8B8B" points="305.732,159.384 322.479,182.715 335.552,164.501 335.552,154.265 322.479,136.051 				"/>
				<path fill="#8B8B8B" d="M241.41,295.66l8.945-12.461c-9.231-1.693-17.81-5.26-25.301-10.32L241.41,295.66z"/>
				<polygon fill="#8B8B8B" points="272.934,318.031 290.959,318.031 281.943,305.469 				"/>
				<path fill="#8B8B8B" d="M281.943,295.66l14.959-20.834c-7.148,4.283-15.159,7.27-23.713,8.639L281.943,295.66z"/>
				<path fill="#8B8B8B" d="M329.518,217.32c0,4.865-0.531,9.604-1.517,14.174l7.551-10.52v-10.236l-8.7-12.123
					C328.574,204.555,329.518,210.826,329.518,217.32z"/>
				<polygon fill="#8B8B8B" points="335.552,200.928 335.552,174.311 325.997,187.62 				"/>
				<polygon fill="#8B8B8B" points="232.396,318.031 250.424,318.031 241.41,305.469 				"/>
				<path fill="#8B8B8B" d="M256.779,284.059l-11.85,16.508l12.534,17.467h8.427l12.531-17.467l-11.761-16.387
					c-1.373,0.084-2.753,0.141-4.146,0.141C260.582,284.32,258.672,284.221,256.779,284.059z"/>
				<polygon fill="#8B8B8B" points="288.855,116.611 275.031,116.611 281.943,126.242 				"/>
				<path fill="#8B8B8B" d="M333.303,310.742c1.426-2.316,2.249-5.041,2.249-7.955v-15.529l-9.555,13.309L333.303,310.742z"/>
				<path fill="#8B8B8B" d="M264.623,150.375l13.801-19.229L267.99,116.61h-12.627l-10.434,14.536l13.842,19.285
					c1.239-0.068,2.486-0.11,3.744-0.11C263.223,150.322,263.922,150.354,264.623,150.375z"/>
				<path fill="#8B8B8B" d="M189.481,289.596v13.191c0,2.375,0.546,4.627,1.52,6.633l6.355-8.854L189.481,289.596z"/>
				<path fill="#8B8B8B" d="M298.691,159.384l-16.748-23.333l-10.664,14.86c9.687,1.266,18.721,4.593,26.646,9.539L298.691,159.384z
					"/>
				<path fill="#8B8B8B" d="M207.789,116.611h-3.064c-3.26,0-6.282,1.032-8.764,2.783l4.916,6.848L207.789,116.611z"/>
				<path fill="#8B8B8B" d="M325.997,131.147l9.555,13.309v-12.601c0-3.563-1.231-6.838-3.286-9.437L325.997,131.147z"/>
				<polygon fill="#8B8B8B" points="302.214,154.479 318.956,131.147 308.523,116.611 295.896,116.611 285.466,131.147 				"/>
				<polygon fill="#8B8B8B" points="221.145,154.479 237.891,131.147 227.458,116.611 214.832,116.611 204.396,131.147 				"/>
				<polygon fill="#8B8B8B" points="335.552,257.402 335.552,230.783 325.997,244.092 				"/>
				<polygon fill="#8B8B8B" points="305.732,272.332 322.479,295.66 335.552,277.447 335.552,267.211 322.479,248.998 				"/>
				<polygon fill="#8B8B8B" points="217.622,159.384 200.877,136.051 189.481,151.929 189.481,166.838 200.877,182.715 				"/>
				<path fill="#8B8B8B" d="M313.464,318.031h6.845c3.383,0,6.515-1.113,9.043-2.982l-6.873-9.58L313.464,318.031z"/>
				<path fill="#8B8B8B" d="M191.929,123.585c-1.546,2.384-2.447,5.222-2.447,8.269v10.264l7.875-10.971L191.929,123.585z"/>
				<path fill="#8B8B8B" d="M194.622,314.188c2.691,2.391,6.229,3.846,10.103,3.846h5.166l-9.014-12.562L194.622,314.188z"/>
				<path fill="#8B8B8B" d="M327.923,118.658c-2.241-1.299-4.844-2.047-7.614-2.047h-4.742l6.912,9.631L327.923,118.658z"/>
				<path fill="#8B8B8B" d="M241.41,136.051l-16.747,23.333l1.294,1.803c7.786-5.082,16.686-8.599,26.264-10.076L241.41,136.051z"/>
				<path fill="#8B8B8B" d="M199.554,194.368l-10.072,14.034v14.908l8.423,11.735c-1.546-5.647-2.388-11.588-2.388-17.728
					C195.517,209.258,196.943,201.527,199.554,194.368z"/>
				<polygon fill="#8B8B8B" points="248.325,116.611 234.498,116.611 241.41,126.242 				"/>
				<polygon fill="#8B8B8B" points="189.481,176.647 189.481,198.592 197.356,187.62 				"/>
				<polygon fill="#8B8B8B" points="217.623,272.332 200.877,248.998 189.481,264.873 189.481,279.783 200.877,295.66 				"/>
				<polygon fill="#8B8B8B" points="221.145,277.234 204.396,300.566 216.934,318.031 225.355,318.031 237.891,300.566 				"/>
				<polygon fill="#8B8B8B" points="189.481,233.119 189.481,255.064 197.356,244.092 				"/>
				<polygon fill="#8B8B8B" points="302.212,277.234 285.466,300.566 298,318.031 306.423,318.031 318.956,300.566 				"/>
			</g>
		</g>
	</g>
</g>
</svg>
